w50b1r100.ufo
<glyph name="_2" format="2">
  <advance width="50"/>
  <unicode hex="0102"/>
  <unicode hex="0062"/>
  <outline>
    <component base="cap" xOffset="0" yOffset="0" />
    <component base="cap" xOffset="0" yOffset="19" />
    <contour>
      <point x="0" y="1" type="line"/>
      <point x="0" y="20" type="line"/>
      <point x="1" y="20" type="line"/>
      <point x="1" y="1" type="line"/>
    </contour>
  </outline>
</glyph>
<glyph name="_5" format="2">
  <advance width="50"/>
  <unicode hex="0105"/>
  
  <outline>
    <component base="cap" xOffset="0" yOffset="0" />
    <component base="cap" xOffset="0" yOffset="49" />
    <contour>
      <point x="0" y="1" type="line"/>
      <point x="0" y="50" type="line"/>
      <point x="1" y="50" type="line"/>
      <point x="1" y="1" type="line"/>
    </contour>
  </outline>
</glyph>
<glyph name="_23" format="2">
  <advance width="50"/>
  <unicode hex="0117"/>
  
  <outline>
    <component base="cap" xOffset="0" yOffset="0" />
    <component base="cap" xOffset="0" yOffset="229" />
    <contour>
      <point x="0" y="1" type="line"/>
      <point x="0" y="230" type="line"/>
      <point x="1" y="230" type="line"/>
      <point x="1" y="1" type="line"/>
    </contour>
  </outline>
</glyph>
<glyph name="_27" format="2">
  <advance width="50"/>
  <unicode hex="011B"/>
  
  <outline>
    <component base="cap" xOffset="0" yOffset="0" />
    <component base="cap" xOffset="0" yOffset="269" />
    <contour>
      <point x="0" y="1" type="line"/>
      <point x="0" y="270" type="line"/>
      <point x="1" y="270" type="line"/>
      <point x="1" y="1" type="line"/>
    </contour>
  </outline>
</glyph>
<glyph name="_38" format="2">
  <advance width="50"/>
  <unicode hex="0126"/>
  <unicode hex="0074"/>
  <outline>
    <component base="cap" xOffset="0" yOffset="0" />
    <component base="cap" xOffset="0" yOffset="379" />
    <contour>
      <point x="0" y="1" type="line"/>
      <point x="0" y="380" type="line"/>
      <point x="1" y="380" type="line"/>
      <point x="1" y="1" type="line"/>
    </contour>
  </outline>
</glyph>
<glyph name="_42" format="2">
  <advance width="50"/>
  <unicode hex="012A"/>
  <unicode hex="2584"/><unicode hex="0076"/>
  <outline>
    <component base="cap" xOffset="0" yOffset="0" />
    <component base="cap" xOffset="0" yOffset="419" />
    <contour>
      <point x="0" y="1" type="line"/>
      <point x="0" y="420" type="line"/>
      <point x="1" y="420" type="line"/>
      <point x="1" y="1" type="line"/>
    </contour>
  </outline>
</glyph>
<glyph name="_47" format="2">
  <advance width="50"/>
  <unicode hex="012F"/>
  
  <outline>
    <component base="cap" xOffset="0" yOffset="0" />
    <component base="cap" xOffset="0" yOffset="469" />
    <contour>
      <point x="0" y="1" type="line"/>
      <point x="0" y="470" type="line"/>
      <point x="1" y="470" type="line"/>
      <point x="1" y="1" type="line"/>
    </contour>
  </outline>
</glyph>
<glyph name="_61" format="2">
  <advance width="50"/>
  <unicode hex="013D"/>
  
  <outline>
    <component base="cap" xOffset="0" yOffset="0" />
    <component base="cap" xOffset="0" yOffset="609" />
    <contour>
      <point x="0" y="1" type="line"/>
      <point x="0" y="610" type="line"/>
      <point x="1" y="610" type="line"/>
      <point x="1" y="1" type="line"/>
    </contour>
  </outline>
</glyph>
<glyph name="_70" format="2">
  <advance width="50"/>
  <unicode hex="0146"/>
  <unicode hex="0037"/><unicode hex="004A"/>
  <outline>
    <component base="cap" xOffset="0" yOffset="0" />
    <component base="cap" xOffset="0" yOffset="699" />
    <contour>
      <point x="0" y="1" type="line"/>
      <point x="0" y="700" type="line"/>
      <point x="1" y="700" type="line"/>
      <point x="1" y="1" type="line"/>
    </contour>
  </outline>
</glyph>
<glyph name="_72" format="2">
  <advance width="50"/>
  <unicode hex="0148"/>
  <unicode hex="2586"/><unicode hex="004B"/>
  <outline>
    <component base="cap" xOffset="0" yOffset="0" />
    <component base="cap" xOffset="0" yOffset="719" />
    <contour>
      <point x="0" y="1" type="line"/>
      <point x="0" y="720" type="line"/>
      <point x="1" y="720" type="line"/>
      <point x="1" y="1" type="line"/>
    </contour>
  </outline>
</glyph>
<glyph name="_74" format="2">
  <advance width="50"/>
  <unicode hex="014A"/>
  <unicode hex="004C"/>
  <outline>
    <component base="cap" xOffset="0" yOffset="0" />
    <component base="cap" xOffset="0" yOffset="739" />
    <contour>
      <point x="0" y="1" type="line"/>
      <point x="0" y="740" type="line"/>
      <point x="1" y="740" type="line"/>
      <point x="1" y="1" type="line"/>
    </contour>
  </outline>
</glyph>
<glyph name="_75" format="2">
  <advance width="50"/>
  <unicode hex="014B"/>
  
  <outline>
    <component base="cap" xOffset="0" yOffset="0" />
    <component base="cap" xOffset="0" yOffset="749" />
    <contour>
      <point x="0" y="1" type="line"/>
      <point x="0" y="750" type="line"/>
      <point x="1" y="750" type="line"/>
      <point x="1" y="1" type="line"/>
    </contour>
  </outline>
</glyph>
<glyph name="_85" format="2">
  <advance width="50"/>
  <unicode hex="0155"/>
  
  <outline>
    <component base="cap" xOffset="0" yOffset="0" />
    <component base="cap" xOffset="0" yOffset="849" />
    <contour>
      <point x="0" y="1" type="line"/>
      <point x="0" y="850" type="line"/>
      <point x="1" y="850" type="line"/>
      <point x="1" y="1" type="line"/>
    </contour>
  </outline>
</glyph>
<glyph name="_95" format="2">
  <advance width="50"/>
  <unicode hex="015F"/>
  
  <outline>
    <component base="cap" xOffset="0" yOffset="0" />
    <component base="cap" xOffset="0" yOffset="949" />
    <contour>
      <point x="0" y="1" type="line"/>
      <point x="0" y="950" type="line"/>
      <point x="1" y="950" type="line"/>
      <point x="1" y="1" type="line"/>
    </contour>
  </outline>
</glyph>
<glyph name="_97" format="2">
  <advance width="50"/>
  <unicode hex="0161"/>
  
  <outline>
    <component base="cap" xOffset="0" yOffset="0" />
    <component base="cap" xOffset="0" yOffset="969" />
    <contour>
      <point x="0" y="1" type="line"/>
      <point x="0" y="970" type="line"/>
      <point x="1" y="970" type="line"/>
      <point x="1" y="1" type="line"/>
    </contour>
  </outline>
</glyph>
<glyph name="_100" format="2">
  <advance width="50"/>
  <unicode hex="0164"/>
  <unicode hex="007C"/><unicode hex="2588"/><unicode hex="005A"/>
  <outline>
    <component base="cap" xOffset="0" yOffset="0" />
    <component base="cap" xOffset="0" yOffset="999" />
    <contour>
      <point x="0" y="1" type="line"/>
      <point x="0" y="1000" type="line"/>
      <point x="1" y="1000" type="line"/>
      <point x="1" y="1" type="line"/>
    </contour>
  </outline>
</glyph>
<glyph name="_6.center" format="2">
  <advance width="50"/>
  <unicode hex="0406"/>
  
  <outline>
    <component base="cap" xOffset="0" yOffset="470" />
    <component base="cap" xOffset="0" yOffset="529" />
    <contour>
      <point x="0" y="471" type="line"/>
      <point x="0" y="530" type="line"/>
      <point x="1" y="530" type="line"/>
      <point x="1" y="471" type="line"/>
    </contour>
  </outline>
</glyph>
<glyph name="_12.center" format="2">
  <advance width="50"/>
  <unicode hex="040C"/>
  
  <outline>
    <component base="cap" xOffset="0" yOffset="440" />
    <component base="cap" xOffset="0" yOffset="559" />
    <contour>
      <point x="0" y="441" type="line"/>
      <point x="0" y="560" type="line"/>
      <point x="1" y="560" type="line"/>
      <point x="1" y="441" type="line"/>
    </contour>
  </outline>
</glyph>
<glyph name="_16.center" format="2">
  <advance width="50"/>
  <unicode hex="0410"/>
  
  <outline>
    <component base="cap" xOffset="0" yOffset="420" />
    <component base="cap" xOffset="0" yOffset="579" />
    <contour>
      <point x="0" y="421" type="line"/>
      <point x="0" y="580" type="line"/>
      <point x="1" y="580" type="line"/>
      <point x="1" y="421" type="line"/>
    </contour>
  </outline>
</glyph>
<glyph name="_18.center" format="2">
  <advance width="50"/>
  <unicode hex="0412"/>
  
  <outline>
    <component base="cap" xOffset="0" yOffset="410" />
    <component base="cap" xOffset="0" yOffset="589" />
    <contour>
      <point x="0" y="411" type="line"/>
      <point x="0" y="590" type="line"/>
      <point x="1" y="590" type="line"/>
      <point x="1" y="411" type="line"/>
    </contour>
  </outline>
</glyph>
<glyph name="_21.center" format="2">
  <advance width="50"/>
  <unicode hex="0415"/>
  
  <outline>
    <component base="cap" xOffset="0" yOffset="395" />
    <component base="cap" xOffset="0" yOffset="604" />
    <contour>
      <point x="0" y="396" type="line"/>
      <point x="0" y="605" type="line"/>
      <point x="1" y="605" type="line"/>
      <point x="1" y="396" type="line"/>
    </contour>
  </outline>
</glyph>
<glyph name="_31.center" format="2">
  <advance width="50"/>
  <unicode hex="041F"/>
  
  <outline>
    <component base="cap" xOffset="0" yOffset="345" />
    <component base="cap" xOffset="0" yOffset="654" />
    <contour>
      <point x="0" y="346" type="line"/>
      <point x="0" y="655" type="line"/>
      <point x="1" y="655" type="line"/>
      <point x="1" y="346" type="line"/>
    </contour>
  </outline>
</glyph>
<glyph name="_40.center" format="2">
  <advance width="50"/>
  <unicode hex="0428"/>
  
  <outline>
    <component base="cap" xOffset="0" yOffset="300" />
    <component base="cap" xOffset="0" yOffset="699" />
    <contour>
      <point x="0" y="301" type="line"/>
      <point x="0" y="700" type="line"/>
      <point x="1" y="700" type="line"/>
      <point x="1" y="301" type="line"/>
    </contour>
  </outline>
</glyph>
<glyph name="_42.center" format="2">
  <advance width="50"/>
  <unicode hex="042A"/>
  
  <outline>
    <component base="cap" xOffset="0" yOffset="290" />
    <component base="cap" xOffset="0" yOffset="709" />
    <contour>
      <point x="0" y="291" type="line"/>
      <point x="0" y="710" type="line"/>
      <point x="1" y="710" type="line"/>
      <point x="1" y="291" type="line"/>
    </contour>
  </outline>
</glyph>
<glyph name="_48.center" format="2">
  <advance width="50"/>
  <unicode hex="0430"/>
  
  <outline>
    <component base="cap" xOffset="0" yOffset="260" />
    <component base="cap" xOffset="0" yOffset="739" />
    <contour>
      <point x="0" y="261" type="line"/>
      <point x="0" y="740" type="line"/>
      <point x="1" y="740" type="line"/>
      <point x="1" y="261" type="line"/>
    </contour>
  </outline>
</glyph>
<glyph name="_69.center" format="2">
  <advance width="50"/>
  <unicode hex="0445"/>
  
  <outline>
    <component base="cap" xOffset="0" yOffset="155" />
    <component base="cap" xOffset="0" yOffset="844" />
    <contour>
      <point x="0" y="156" type="line"/>
      <point x="0" y="845" type="line"/>
      <point x="1" y="845" type="line"/>
      <point x="1" y="156" type="line"/>
    </contour>
  </outline>
</glyph>
<glyph name="_70.center" format="2">
  <advance width="50"/>
  <unicode hex="0446"/>
  
  <outline>
    <component base="cap" xOffset="0" yOffset="150" />
    <component base="cap" xOffset="0" yOffset="849" />
    <contour>
      <point x="0" y="151" type="line"/>
      <point x="0" y="850" type="line"/>
      <point x="1" y="850" type="line"/>
      <point x="1" y="151" type="line"/>
    </contour>
  </outline>
</glyph>
<glyph name="_73.center" format="2">
  <advance width="50"/>
  <unicode hex="0449"/>
  
  <outline>
    <component base="cap" xOffset="0" yOffset="135" />
    <component base="cap" xOffset="0" yOffset="864" />
    <contour>
      <point x="0" y="136" type="line"/>
      <point x="0" y="865" type="line"/>
      <point x="1" y="865" type="line"/>
      <point x="1" y="136" type="line"/>
    </contour>
  </outline>
</glyph>
<glyph name="_77.center" format="2">
  <advance width="50"/>
  <unicode hex="044D"/>
  
  <outline>
    <component base="cap" xOffset="0" yOffset="115" />
    <component base="cap" xOffset="0" yOffset="884" />
    <contour>
      <point x="0" y="116" type="line"/>
      <point x="0" y="885" type="line"/>
      <point x="1" y="885" type="line"/>
      <point x="1" y="116" type="line"/>
    </contour>
  </outline>
</glyph>
<glyph name="_84.center" format="2">
  <advance width="50"/>
  <unicode hex="0454"/>
  
  <outline>
    <component base="cap" xOffset="0" yOffset="80" />
    <component base="cap" xOffset="0" yOffset="919" />
    <contour>
      <point x="0" y="81" type="line"/>
      <point x="0" y="920" type="line"/>
      <point x="1" y="920" type="line"/>
      <point x="1" y="81" type="line"/>
    </contour>
  </outline>
</glyph>
<glyph name="_1.clip" format="2">
  <advance width="50"/>
  
  <outline>
    <contour>
        <point x="0.000" y="7.750"/>

        <point x="2.250" y="10.000"/>
        <point x="5.000" y="10.000" type="curve" smooth="yes"/>
        <point x="-4.000" y="10.000" type="line"/>
        <point x="-1.250" y="10.000"/>

        <point x="1.000" y="7.750"/>
        <point x="1.000" y="5.000" type="curve" smooth="yes"/>
        <point x="1.000" y="5.000" type="line"/>
        <point x="1.000" y="2.250"/>

        <point x="-1.250" y="0.000"/>
        <point x="-4.000" y="0.000" type="curve" smooth="yes"/>
        <point x="5.000" y="0.000" type="line"/>
        <point x="2.250" y="0.000"/>

        <point x="0.000" y="2.250"/>
        <point x="0.000" y="5.000" type="curve" smooth="yes"/>
        <point x="0.000" y="5.000" type="line"/>
    </contour>
  </outline>
</glyph>
<glyph name="_12.clip" format="2">
  <advance width="50"/>
  
  <outline>
    <contour>
        <point x="0.000" y="93.000"/>

        <point x="27.000" y="120.000"/>
        <point x="60.000" y="120.000" type="curve" smooth="yes"/>
        <point x="-59.000" y="120.000" type="line"/>
        <point x="-26.000" y="120.000"/>

        <point x="1.000" y="93.000"/>
        <point x="1.000" y="60.000" type="curve" smooth="yes"/>
        <point x="1.000" y="60.000" type="line"/>
        <point x="1.000" y="27.000"/>

        <point x="-26.000" y="0.000"/>
        <point x="-59.000" y="0.000" type="curve" smooth="yes"/>
        <point x="60.000" y="0.000" type="line"/>
        <point x="27.000" y="0.000"/>

        <point x="0.000" y="27.000"/>
        <point x="0.000" y="60.000" type="curve" smooth="yes"/>
        <point x="0.000" y="60.000" type="line"/>
    </contour>
  </outline>
</glyph>
<glyph name="_14.clip" format="2">
  <advance width="50"/>
  
  <outline>
    <contour>
        <point x="0.000" y="108.500"/>

        <point x="31.500" y="140.000"/>
        <point x="70.000" y="140.000" type="curve" smooth="yes"/>
        <point x="-69.000" y="140.000" type="line"/>
        <point x="-30.500" y="140.000"/>

        <point x="1.000" y="108.500"/>
        <point x="1.000" y="70.000" type="curve" smooth="yes"/>
        <point x="1.000" y="70.000" type="line"/>
        <point x="1.000" y="31.500"/>

        <point x="-30.500" y="0.000"/>
        <point x="-69.000" y="0.000" type="curve" smooth="yes"/>
        <point x="70.000" y="0.000" type="line"/>
        <point x="31.500" y="0.000"/>

        <point x="0.000" y="31.500"/>
        <point x="0.000" y="70.000" type="curve" smooth="yes"/>
        <point x="0.000" y="70.000" type="line"/>
    </contour>
  </outline>
</glyph>
<glyph name="_2.clip" format="2">
  <advance width="50"/>
  
  <outline>
    <contour>
        <point x="0.000" y="15.500"/>

        <point x="4.500" y="20.000"/>
        <point x="10.000" y="20.000" type="curve" smooth="yes"/>
        <point x="-9.000" y="20.000" type="line"/>
        <point x="-3.500" y="20.000"/>

        <point x="1.000" y="15.500"/>
        <point x="1.000" y="10.000" type="curve" smooth="yes"/>
        <point x="1.000" y="10.000" type="line"/>
        <point x="1.000" y="4.500"/>

        <point x="-3.500" y="0.000"/>
        <point x="-9.000" y="0.000" type="curve" smooth="yes"/>
        <point x="10.000" y="0.000" type="line"/>
        <point x="4.500" y="0.000"/>

        <point x="0.000" y="4.500"/>
        <point x="0.000" y="10.000" type="curve" smooth="yes"/>
        <point x="0.000" y="10.000" type="line"/>
    </contour>
  </outline>
</glyph>
<glyph name="_3.clip.center" format="2">
  <advance width="50"/>
  
  <outline>
    <contour>
        <point x="0.000" y="508.250"/>

        <point x="6.750" y="515.000"/>
        <point x="15.000" y="515.000" type="curve" smooth="yes"/>
        <point x="-14.000" y="515.000" type="line"/>
        <point x="-5.750" y="515.000"/>

        <point x="1.000" y="508.250"/>
        <point x="1.000" y="500.000" type="curve" smooth="yes"/>
        <point x="1.000" y="500.000" type="line"/>
        <point x="1.000" y="491.750"/>

        <point x="-5.750" y="485.000"/>
        <point x="-14.000" y="485.000" type="curve" smooth="yes"/>
        <point x="15.000" y="485.000" type="line"/>
        <point x="6.750" y="485.000"/>

        <point x="0.000" y="491.750"/>
        <point x="0.000" y="500.000" type="curve" smooth="yes"/>
        <point x="0.000" y="500.000" type="line"/>
    </contour>
  </outline>
</glyph>
<glyph name="_6.clip.center" format="2">
  <advance width="50"/>
  
  <outline>
    <contour>
        <point x="0.000" y="516.500"/>

        <point x="13.500" y="530.000"/>
        <point x="30.000" y="530.000" type="curve" smooth="yes"/>
        <point x="-29.000" y="530.000" type="line"/>
        <point x="-12.500" y="530.000"/>

        <point x="1.000" y="516.500"/>
        <point x="1.000" y="500.000" type="curve" smooth="yes"/>
        <point x="1.000" y="500.000" type="line"/>
        <point x="1.000" y="483.500"/>

        <point x="-12.500" y="470.000"/>
        <point x="-29.000" y="470.000" type="curve" smooth="yes"/>
        <point x="30.000" y="470.000" type="line"/>
        <point x="13.500" y="470.000"/>

        <point x="0.000" y="483.500"/>
        <point x="0.000" y="500.000" type="curve" smooth="yes"/>
        <point x="0.000" y="500.000" type="line"/>
    </contour>
  </outline>
</glyph>
<glyph name="_6.clip" format="2">
  <advance width="50"/>
  
  <outline>
    <contour>
        <point x="0.000" y="46.500"/>

        <point x="13.500" y="60.000"/>
        <point x="30.000" y="60.000" type="curve" smooth="yes"/>
        <point x="-29.000" y="60.000" type="line"/>
        <point x="-12.500" y="60.000"/>

        <point x="1.000" y="46.500"/>
        <point x="1.000" y="30.000" type="curve" smooth="yes"/>
        <point x="1.000" y="30.000" type="line"/>
        <point x="1.000" y="13.500"/>

        <point x="-12.500" y="0.000"/>
        <point x="-29.000" y="0.000" type="curve" smooth="yes"/>
        <point x="30.000" y="0.000" type="line"/>
        <point x="13.500" y="0.000"/>

        <point x="0.000" y="13.500"/>
        <point x="0.000" y="30.000" type="curve" smooth="yes"/>
        <point x="0.000" y="30.000" type="line"/>
    </contour>
  </outline>
</glyph>
<glyph name="_7.clip" format="2">
  <advance width="50"/>
  
  <outline>
    <contour>
        <point x="0.000" y="54.250"/>

        <point x="15.750" y="70.000"/>
        <point x="35.000" y="70.000" type="curve" smooth="yes"/>
        <point x="-34.000" y="70.000" type="line"/>
        <point x="-14.750" y="70.000"/>

        <point x="1.000" y="54.250"/>
        <point x="1.000" y="35.000" type="curve" smooth="yes"/>
        <point x="1.000" y="35.000" type="line"/>
        <point x="1.000" y="15.750"/>

        <point x="-14.750" y="0.000"/>
        <point x="-34.000" y="0.000" type="curve" smooth="yes"/>
        <point x="35.000" y="0.000" type="line"/>
        <point x="15.750" y="0.000"/>

        <point x="0.000" y="15.750"/>
        <point x="0.000" y="35.000" type="curve" smooth="yes"/>
        <point x="0.000" y="35.000" type="line"/>
    </contour>
  </outline>
</glyph>
